{"asset":{"version":"2.0","generator":"Blockbench 4.1.5 glTF exporter"},"scenes":[{"nodes":[2],"name":"blockbench_export"}],"scene":0,"nodes":[{"name":"torus","mesh":0},{"rotation":[0.7132504491541851,0,0,0.7009092642998473],"translation":[0,0,0.875],"name":"cone","mesh":1},{"children":[0,1]}],"bufferViews":[{"buffer":0,"byteOffset":0,"byteLength":47232,"target":34962,"byteStride":12},{"buffer":0,"byteOffset":47232,"byteLength":47232,"target":34962,"byteStride":12},{"buffer":0,"byteOffset":94464,"byteLength":31488,"target":34962,"byteStride":8},{"buffer":0,"byteOffset":125952,"byteLength":11808,"target":34963},{"buffer":0,"byteOffset":137760,"byteLength":1440,"target":34962,"byteStride":12},{"buffer":0,"byteOffset":139200,"byteLength":1440,"target":34962,"byteStride":12},{"buffer":0,"byteOffset":140640,"byteLength":960,"target":34962,"byteStride":8},{"buffer":0,"byteOffset":141600,"byteLength":240,"target":34963}],"buffers":[{"byteLength":141840,"uri":"data:application/octet-stream;base64,"}],"accessors":[{"bufferView":0,"componentType":5126,"count":3936,"max":[0.8119037747383118,0,0.8125],"min":[-0.8119037747383118,0,-0.8101159930229187],"type":"VEC3"},{"bufferView":1,"componentType":5126,"count":3936,"max":[0,1,0],"min":[0,-1,0],"type":"VEC3"},{"bufferView":2,"componentType":5126,"count":3936,"max":[0.40595313906669617,1],"min":[0,0.1880953162908554],"type":"VEC2"},{"bufferView":3,"componentType":5123,"count":5904,"max":[3935],"min":[0],"type":"SCALAR"},{"bufferView":4,"componentType":5126,"count":120,"max":[0.0625,0.10000000149011612,0],"min":[-0.0625,-0.08749999850988388,0],"type":"VEC3"},{"bufferView":5,"componentType":5126,"count":120,"max":[1,0,1],"min":[0,0,-1],"type":"VEC3"},{"bufferView":6,"componentType":5126,"count":120,"max":[0.12499967962503433,1],"min":[0,0.8026000261306763],"type":"VEC2"},{"bufferView":7,"componentType":5123,"count":120,"max":[119],"min":[0],"type":"SCALAR"}],"materials":[{"pbrMetallicRoughness":{"metallicFactor":0,"roughnessFactor":1,"baseColorTexture":{"index":0}},"alphaMode":"MASK","alphaCutoff":0.05,"doubleSided":true}],"textures":[{"sampler":0,"source":0,"name":"texture"}],"samplers":[{"magFilter":9728,"minFilter":9728,"wrapS":33071,"wrapT":33071}],"images":[{"mimeType":"image/png","uri":"data:image/png;base64,"}],"meshes":[{"primitives":[{"mode":4,"attributes":{"POSITION":0,"NORMAL":1,"TEXCOORD_0":2},"indices":3,"material":0}]},{"primitives":[{"mode":4,"attributes":{"POSITION":4,"NORMAL":5,"TEXCOORD_0":6},"indices":7,"material":0}]}]}